<svg xmlns="http://www.w3.org/2000/svg" xmlns:xlink="http://www.w3.org/1999/xlink" width="794" zoomAndPan="magnify" viewBox="0 0 595.5 842.249979" height="1123" preserveAspectRatio="xMidYMid meet" version="1.0"><defs><clipPath id="3d4fa36f7a"><path d="M 0.46875 0.824219 L 484.503906 0.824219 L 484.503906 760.597656 L 0.46875 760.597656 Z M 0.46875 0.824219 " clip-rule="nonzero"/></clipPath><clipPath id="042edbaf3d"><rect x="0" width="485" y="0" height="762"/></clipPath></defs><g transform="matrix(1, 0, 0, 1, 55, 40)"><g clip-path="url(#042edbaf3d)"><g clip-path="url(#3d4fa36f7a)"><path fill="#ff0000" d="M 444.238281 518.417969 L 444.238281 518.660156 C 444.21875 519.960938 444.222656 519.128906 444.21875 519.464844 L 444.105469 520.976562 L 443.871094 523.980469 C 443.710938 525.980469 443.550781 527.972656 443.390625 529.957031 C 443.34375 530.46875 443.328125 530.914062 443.257812 531.472656 L 443.03125 533.175781 C 442.878906 534.308594 442.722656 535.433594 442.570312 536.5625 C 442.246094 538.804688 441.921875 541.039062 441.59375 543.261719 C 440.867188 547.617188 439.851562 551.667969 438.960938 555.792969 C 437.980469 559.867188 436.703125 563.828125 435.558594 567.75 C 435.027344 569.71875 434.230469 571.605469 433.5625 573.5 C 432.855469 575.386719 432.15625 577.261719 431.460938 579.121094 C 425.589844 593.894531 418.003906 606.851562 410.003906 617.855469 C 407.949219 620.582031 406.046875 623.292969 403.882812 625.734375 C 401.761719 628.199219 399.796875 630.664062 397.6875 632.914062 C 395.535156 635.101562 393.4375 637.238281 391.398438 639.3125 C 390.894531 639.828125 390.386719 640.339844 389.886719 640.84375 C 389.355469 641.324219 388.824219 641.796875 388.304688 642.273438 C 387.25 643.199219 386.210938 644.113281 385.191406 645.015625 C 381.175781 648.675781 377.09375 651.714844 373.371094 654.507812 C 371.546875 655.945312 369.605469 657.105469 367.84375 658.292969 C 366.074219 659.480469 364.351562 660.554688 362.746094 661.589844 C 356.089844 665.46875 350.8125 668.238281 347.023438 669.792969 C 345.171875 670.636719 343.722656 671.226562 342.769531 671.640625 C 341.804688 672.046875 341.308594 672.257812 341.308594 672.257812 C 341.308594 672.257812 342.816406 670.707031 345.632812 667.796875 C 346.339844 667.085938 347.125 666.289062 347.988281 665.414062 C 348.425781 664.984375 348.875 664.53125 349.347656 664.0625 C 349.796875 663.5625 350.265625 663.039062 350.742188 662.503906 C 351.707031 661.429688 352.746094 660.273438 353.84375 659.042969 C 354.941406 657.816406 356.167969 656.59375 357.332031 655.164062 C 358.496094 653.734375 359.703125 652.214844 361 650.671875 C 362.269531 649.101562 363.679688 647.570312 364.9375 645.753906 C 367.480469 642.171875 370.457031 638.574219 373.101562 634.300781 C 373.785156 633.265625 374.488281 632.210938 375.199219 631.140625 C 375.554688 630.617188 375.914062 630.082031 376.285156 629.546875 C 376.613281 628.988281 376.953125 628.425781 377.289062 627.855469 C 378.621094 625.601562 380 623.285156 381.414062 620.898438 C 383.976562 615.988281 386.847656 611.011719 389.175781 605.480469 C 394.160156 594.625 398.410156 582.5 401.464844 569.503906 C 401.808594 567.875 402.15625 566.226562 402.503906 564.578125 C 402.835938 562.917969 403.296875 561.296875 403.492188 559.589844 C 403.75 557.910156 404.007812 556.214844 404.265625 554.511719 C 404.398438 553.664062 404.542969 552.8125 404.671875 551.957031 C 404.832031 551.109375 404.945312 550.257812 405.003906 549.386719 C 405.167969 547.660156 405.324219 545.921875 405.488281 544.179688 L 405.757812 541.558594 C 405.859375 540.6875 405.941406 539.816406 405.941406 538.996094 C 406 537.332031 406.054688 535.65625 406.109375 533.976562 L 406.226562 531.46875 L 406.289062 530.210938 C 406.304688 529.777344 406.277344 529.234375 406.277344 528.75 C 406.246094 526.761719 406.222656 524.761719 406.191406 522.757812 L 406.148438 519.742188 L 406.132812 518.234375 C 406.132812 518.441406 406.140625 517.484375 406.121094 518.660156 L 406.109375 518.523438 L 406.078125 518.25 L 406.027344 517.695312 L 405.835938 515.492188 L 405.484375 513.050781 C 405.359375 512.222656 405.269531 511.425781 405.121094 510.578125 L 404.625 507.972656 C 404.082031 504.546875 403.085938 500.847656 402.296875 497.242188 C 401.800781 495.394531 401.308594 493.539062 400.8125 491.679688 C 400.3125 489.820312 399.863281 487.96875 399.253906 486.078125 C 394.882812 471.027344 389.503906 455.542969 383.65625 440.121094 C 380.902344 432.375 377.714844 424.683594 374.792969 416.96875 C 371.710938 409.265625 368.644531 401.597656 365.601562 393.988281 C 362.472656 386.375 359.371094 378.824219 356.300781 371.359375 C 354.824219 367.605469 353.214844 363.914062 351.675781 360.226562 C 350.136719 356.535156 348.617188 352.867188 347.109375 349.234375 C 345.578125 345.605469 344.1875 341.953125 342.636719 338.398438 C 341.136719 334.828125 339.652344 331.285156 338.179688 327.78125 C 335.277344 320.75 332.445312 313.863281 329.6875 307.164062 C 326.890625 300.488281 324.203125 293.972656 321.675781 287.621094 C 320.410156 284.445312 319.160156 281.316406 317.941406 278.25 C 316.675781 275.179688 315.402344 272.175781 314.238281 269.195312 C 311.882812 263.242188 309.554688 257.582031 307.472656 252.121094 C 305.394531 246.710938 303.417969 241.585938 301.558594 236.761719 C 297.78125 227.042969 294.597656 218.515625 292.085938 211.425781 C 289.539062 204.359375 287.664062 198.738281 286.410156 194.894531 C 285.164062 191.042969 284.542969 188.96875 284.542969 188.96875 C 284.542969 188.96875 285.957031 190.605469 288.527344 193.734375 C 291.09375 196.863281 294.824219 201.472656 299.410156 207.417969 C 304.023438 213.355469 309.496094 220.632812 315.652344 229.050781 C 316.421875 230.097656 317.207031 231.167969 318.003906 232.253906 C 318.394531 232.800781 318.789062 233.347656 319.183594 233.902344 L 319.257812 234.007812 C 319.410156 234.28125 319.339844 234.144531 319.394531 234.234375 L 319.542969 234.441406 L 319.832031 234.863281 L 320.421875 235.710938 C 321.996094 237.988281 323.613281 240.328125 325.277344 242.726562 C 328.605469 247.527344 331.972656 252.644531 335.5625 257.945312 C 337.363281 260.589844 339.125 263.332031 340.945312 266.109375 C 342.738281 268.9375 344.558594 271.816406 346.414062 274.746094 C 350.117188 280.621094 353.878906 286.730469 357.699219 293.039062 C 359.648438 296.183594 361.523438 299.40625 363.40625 302.683594 C 365.300781 305.953125 367.203125 309.273438 369.109375 312.632812 C 372.945312 319.351562 376.835938 326.226562 380.566406 333.363281 C 384.320312 340.484375 388.175781 347.695312 391.867188 355.128906 C 395.507812 362.597656 399.238281 370.117188 402.808594 377.824219 C 404.546875 381.699219 406.296875 385.59375 408.050781 389.496094 C 409.785156 393.410156 411.589844 397.296875 413.191406 401.320312 C 416.480469 409.308594 419.820312 417.289062 422.8125 425.503906 C 428.960938 441.8125 434.398438 458.539062 438.566406 475.78125 C 439.125 477.902344 439.5625 480.125 440.023438 482.304688 C 440.488281 484.496094 440.945312 486.675781 441.398438 488.851562 C 442.105469 493.386719 442.949219 497.722656 443.410156 502.425781 L 443.796875 505.886719 C 443.902344 507.0625 443.953125 508.292969 444.035156 509.496094 L 444.234375 513.117188 C 444.234375 514.402344 444.238281 515.695312 444.246094 516.980469 L 444.246094 517.9375 Z M 242.488281 0.824219 C 242.488281 0.824219 0.46875 384.996094 0.46875 518.664062 C 0.46875 652.328125 108.820312 760.679688 242.488281 760.679688 C 376.152344 760.679688 484.511719 652.328125 484.511719 518.664062 C 484.511719 384.996094 242.488281 0.824219 242.488281 0.824219 " fill-opacity="1" fill-rule="nonzero"/></g></g></g></svg>